<?xml version="1.0" encoding="utf-8"?>
<!-- Generator: Adobe Illustrator 27.1.1, SVG Export Plug-In . SVG Version: 6.00 Build 0)  -->
<svg version="1.1" id="Calque_1" xmlns="http://www.w3.org/2000/svg" xmlns:xlink="http://www.w3.org/1999/xlink" x="0px" y="0px"
	 viewBox="0 0 800 800" style="enable-background:new 0 0 800 800;" xml:space="preserve">
<style type="text/css">
	.st0{fill-rule:evenodd;clip-rule:evenodd;fill:#323232;}
</style>
<path class="st0" d="M633.3,66.7c53.2,0,96.8,41.7,99.8,94.1l0.2,5.9V500c0,53.2-41.7,96.8-94.1,99.8l-5.9,0.2H516.7l-90,120
	c-6.3,8.4-16.2,13.3-26.7,13.3c-9.2,0-17.9-3.8-24.1-10.3l-2.5-3l-90-120H166.7c-53.2,0-96.8-41.7-99.8-94.1l-0.2-5.9V166.7
	c0-53.2,41.7-96.8,94.1-99.8l5.9-0.2H633.3z M633.3,133.3H166.7c-17.1,0-31.2,12.9-33.1,29.5l-0.2,3.9V500
	c0,17.1,12.9,31.2,29.5,33.1l3.9,0.2H300c9.2,0,17.9,3.8,24.1,10.3l2.5,3l73.3,97.8l73.3-97.8c5.5-7.3,13.8-12,22.8-13.1l3.9-0.2
	h133.3c17.1,0,31.2-12.9,33.1-29.5l0.2-3.9V166.7c0-17.1-12.9-31.2-29.5-33.1L633.3,133.3z M566.7,366.7c18.4,0,33.3,14.9,33.3,33.3
	c0,17.1-12.9,31.2-29.4,33.1l-3.9,0.2H233.3c-18.4,0-33.3-14.9-33.3-33.3c0-17.1,12.9-31.2,29.4-33.1l3.9-0.2H566.7z M566.7,233.3
	c18.4,0,33.3,14.9,33.3,33.3c0,17.1-12.9,31.2-29.4,33.1l-3.9,0.2H233.3c-18.4,0-33.3-14.9-33.3-33.3c0-17.1,12.9-31.2,29.4-33.1
	l3.9-0.2H566.7z"/>
</svg>
