<?xml version="1.0" encoding="utf-8"?>
<!-- Generator: Adobe Illustrator 27.1.1, SVG Export Plug-In . SVG Version: 6.00 Build 0)  -->
<svg version="1.1" id="Calque_1" xmlns="http://www.w3.org/2000/svg" xmlns:xlink="http://www.w3.org/1999/xlink" x="0px" y="0px"
	 viewBox="0 0 800 800" style="enable-background:new 0 0 800 800;" xml:space="preserve">
<style type="text/css">
	.st0{fill:#444343;stroke:#323232;stroke-width:50;stroke-miterlimit:333.3333;}
	.st1{fill:#444343;stroke:#323232;stroke-width:50;stroke-linecap:round;stroke-linejoin:round;stroke-miterlimit:133.3333;}
</style>
<path class="st0" d="M550.6,188.3l-103.3-80C434,95,404,88.3,384,88.3H257.3c-40,0-83.3,30-93.3,70L84,401.6
	c-16.7,46.7,13.3,86.7,63.3,86.7h133.3c20,0,36.7,16.7,33.3,40L297.2,635c-6.7,30,13.3,63.3,43.3,73.3c26.7,10,60-3.3,73.3-23.3
	l136.7-203.3"/>
<path class="st1" d="M718.8,188.3V515c0,46.7-20,63.3-66.7,63.3h-33.3c-46.7,0-66.7-16.7-66.7-63.3V188.3c0-46.7,20-63.3,66.7-63.3
	h33.3C698.8,124.9,718.8,141.6,718.8,188.3z"/>
</svg>
