<?xml version="1.0" encoding="utf-8"?>
<!-- Generator: Adobe Illustrator 27.1.1, SVG Export Plug-In . SVG Version: 6.00 Build 0)  -->
<svg version="1.1" id="Calque_1" xmlns="http://www.w3.org/2000/svg" xmlns:xlink="http://www.w3.org/1999/xlink" x="0px" y="0px"
	 viewBox="0 0 691.3 673.4" style="enable-background:new 0 0 691.3 673.4;" xml:space="preserve">
<style type="text/css">
	.st0{fill:#444343;stroke:#323232;stroke-width:50;stroke-miterlimit:333.33;}
	.st1{fill:#444343;stroke:#323232;stroke-width:50;stroke-linecap:round;stroke-linejoin:round;}
</style>
<path class="st0" d="M195,548.4l103.3,80c13.3,13.3,43.3,20,63.3,20h126.7c40,0,83.3-30,93.3-70l80-243.3
	c16.7-46.7-13.3-86.7-63.3-86.7H465c-20,0-36.7-16.7-33.3-40l16.7-106.7c6.7-30-13.3-63.3-43.3-73.3c-26.7-10-60,3.3-73.3,23.3
	L195,255.1"/>
<path class="st1" d="M25,548.4V221.7c0-46.7,20-63.3,66.7-63.3H125c46.7,0,66.7,16.7,66.7,63.3v326.7c0,46.7-20,63.3-66.7,63.3H91.7
	C45,611.7,25,595.1,25,548.4L25,548.4z"/>
</svg>
