<?xml version="1.0" encoding="UTF-8"?>
<svg id="Calque_1" data-name="Calque 1" xmlns="http://www.w3.org/2000/svg" viewBox="0 0 691.3 673.4">
  <defs>
    <style>
      .cls-1 {
        stroke-miterlimit: 333.33;
      }

      .cls-1, .cls-2 {
        fill: none;
        stroke: #323232;
        stroke-width: 50px;
      }

      .cls-2 {
        stroke-linecap: round;
        stroke-linejoin: round;
      }
    </style>
  </defs>
  <path class="cls-1" d="m195,548.4l103.3,80c13.3,13.3,43.3,20,63.3,20h126.7c40,0,83.3-30,93.3-70l80-243.3c16.7-46.7-13.3-86.7-63.3-86.7h-133.3c-20,0-36.7-16.7-33.3-40l16.7-106.7c6.7-30-13.3-63.3-43.3-73.3-26.7-10-60,3.3-73.3,23.3l-136.8,203.4"/>
  <path class="cls-2" d="m25,548.4V221.7c0-46.7,20-63.3,66.7-63.3h33.3c46.7,0,66.7,16.7,66.7,63.3v326.7c0,46.7-20,63.3-66.7,63.3h-33.3c-46.7,0-66.7-16.6-66.7-63.3h0Z"/>
</svg>