<?xml version="1.0" encoding="utf-8"?>
<!-- Generator: Adobe Illustrator 27.1.1, SVG Export Plug-In . SVG Version: 6.00 Build 0)  -->
<svg version="1.1" id="Calque_1" xmlns="http://www.w3.org/2000/svg" xmlns:xlink="http://www.w3.org/1999/xlink" x="0px" y="0px"
	 viewBox="0 0 800 800" style="enable-background:new 0 0 800 800;" xml:space="preserve">
<style type="text/css">
	.st0{fill:#323232;}
</style>
<path class="st0" d="M50,125c-13.8,0-25,11.2-25,25c0,13.8,11.2,25,25,25V125z M750,175c13.8,0,25-11.2,25-25c0-13.8-11.2-25-25-25
	V175z M50,175h700v-50H50V175z"/>
<path class="st0" d="M325,50V25V50z M275,100h-25H275z M250,150c0,13.8,11.2,25,25,25s25-11.2,25-25H250z M500,150
	c0,13.8,11.2,25,25,25c13.8,0,25-11.2,25-25H500z M525,100h25H525z M475,25H325v50h150V25z M325,25c-19.9,0-39,7.9-53,22l35.4,35.4
	c4.7-4.7,11-7.3,17.7-7.3V25z M272,47c-14.1,14.1-22,33.1-22,53h50c0-6.6,2.6-13,7.3-17.7L272,47z M250,100v50h50v-50H250z M550,150
	v-50h-50v50H550z M550,100c0-19.9-7.9-39-22-53l-35.4,35.4c4.7,4.7,7.3,11,7.3,17.7H550z M528,47c-14.1-14.1-33.1-22-53-22v50
	c6.6,0,13,2.6,17.7,7.3L528,47z"/>
<path class="st0" d="M300,575c0,13.8,11.2,25,25,25c13.8,0,25-11.2,25-25H300z M350,325c0-13.8-11.2-25-25-25c-13.8,0-25,11.2-25,25
	H350z M350,575V325h-50v250H350z"/>
<path class="st0" d="M450,575c0,13.8,11.2,25,25,25c13.8,0,25-11.2,25-25H450z M500,325c0-13.8-11.2-25-25-25c-13.8,0-25,11.2-25,25
	H500z M500,575V325h-50v250H500z"/>
<path class="st0" d="M628.8,704.1l-24.9-2.1v0L628.8,704.1z M579,750l0-25h0V750z M221,750v-25h0L221,750z M171.2,704.1l24.9-2.1
	l0,0L171.2,704.1z M149.9,147.9c-1.1-13.8-13.2-24-27-22.8c-13.8,1.1-24,13.2-22.8,27L149.9,147.9z M699.9,152.1
	c1.1-13.8-9.1-25.8-22.8-27c-13.8-1.1-25.8,9.1-27,22.8L699.9,152.1z M603.9,702.1c-0.5,6.2-3.4,12.1-8,16.3l33.9,36.8
	c13.8-12.7,22.4-30.2,24-49L603.9,702.1z M595.9,718.4c-4.6,4.2-10.7,6.6-16.9,6.6l0,50c18.8,0,37-7.1,50.8-19.8L595.9,718.4z
	 M579,725H221v50h358V725z M221,725c-6.3,0-12.3-2.4-16.9-6.6l-33.9,36.8c13.8,12.7,32,19.8,50.8,19.8L221,725z M204.1,718.4
	c-4.6-4.2-7.5-10.1-8-16.3l-49.8,4.1c1.6,18.8,10.1,36.2,24,49L204.1,718.4z M196.1,702.1l-46.2-554.1l-49.8,4.2l46.2,554.1
	L196.1,702.1z M650.1,147.9l-46.2,554.1l49.8,4.2l46.2-554.1L650.1,147.9z"/>
</svg>
