<?xml version="1.0" encoding="utf-8"?>
<svg version="1.1" id="Calque_1" x="0px" y="0px" viewBox="0 0 691.3 673.4" style="enable-background:new 0 0 691.3 673.4;" xmlns="http://www.w3.org/2000/svg">
  <style type="text/css">
	.st0{fill:#444343;stroke:#323232;stroke-width:50;stroke-miterlimit:333.33;}
	.st1{fill:#444343;stroke:#323232;stroke-width:50;stroke-linecap:round;stroke-linejoin:round;}
</style>
  <path class="st0" d="M 220.405 506.551 L 307.195 573.766 C 318.368 584.939 343.573 590.568 360.376 590.568 L 466.825 590.568 C 500.43 590.568 536.81 565.362 545.212 531.757 L 612.424 327.346 C 626.455 288.112 601.25 254.504 559.242 254.504 L 447.25 254.504 C 430.445 254.504 416.414 240.473 419.272 220.898 L 433.301 131.251 C 438.932 106.048 422.128 78.069 396.923 69.67 C 374.491 61.266 346.515 72.442 335.34 89.245 L 220.405 260.133" style="stroke-miterlimit: 333.33; fill: rgb(255, 119, 0); stroke-width: 46px;"/>
  <path class="st1" d="M 78.401 512.146 L 78.401 238.833 C 78.401 199.763 95.133 185.876 134.203 185.876 L 162.06 185.876 C 201.13 185.876 217.86 199.847 217.86 238.833 L 217.86 512.146 C 217.86 551.214 201.13 565.103 162.06 565.103 L 134.203 565.103 C 95.133 565.103 78.401 551.214 78.401 512.146 Z" style="stroke-miterlimit: 4; fill: rgb(255, 119, 0); stroke-width: 44px;"/>
</svg>